<svg width="21" height="17" viewBox="0 0 21 17" fill="none" xmlns="http://www.w3.org/2000/svg">
<path d="M11.6417 16.5082C11.5662 16.4327 11.5063 16.3431 11.4654 16.2445C11.4245 16.1458 11.4034 16.0401 11.4034 15.9333C11.4034 15.8265 11.4245 15.7208 11.4654 15.6222C11.5063 15.5235 11.5662 15.4339 11.6417 15.3585L17.5679 9.43331L1.65409 9.43331C1.4386 9.43331 1.23194 9.34771 1.07956 9.19534C0.927188 9.04296 0.841587 8.8363 0.841587 8.62081C0.841587 8.40532 0.927189 8.19866 1.07956 8.04629C1.23194 7.89391 1.4386 7.80831 1.65409 7.80831L17.5679 7.80831L11.6417 1.88316C11.4893 1.7307 11.4036 1.52392 11.4036 1.30831C11.4036 1.0927 11.4893 0.885927 11.6417 0.733469C11.7942 0.581011 12.001 0.495361 12.2166 0.495361C12.4322 0.495361 12.639 0.581011 12.7914 0.733469L20.1039 8.04597C20.1795 8.12143 20.2394 8.21104 20.2803 8.30967C20.3212 8.40831 20.3422 8.51404 20.3422 8.62081C20.3422 8.72759 20.3212 8.83332 20.2803 8.93195C20.2394 9.03059 20.1795 9.1202 20.1039 9.19566L12.7914 16.5082C12.716 16.5837 12.6264 16.6436 12.5277 16.6845C12.4291 16.7254 12.3234 16.7465 12.2166 16.7465C12.1098 16.7465 12.0041 16.7254 11.9054 16.6845C11.8068 16.6436 11.7172 16.5837 11.6417 16.5082Z" fill="url(#paint0_linear_0_392)"/>
<defs>
<linearGradient id="paint0_linear_0_392" x1="-5.95439" y1="-12.0609" x2="12.5885" y2="-17.9002" gradientUnits="userSpaceOnUse">
<stop stop-color="#5B0EEA"/>
<stop offset="1" stop-color="#EE4525"/>
</linearGradient>
</defs>
</svg>
