<svg width="20" height="17" viewBox="0 0 20 17" fill="none" xmlns="http://www.w3.org/2000/svg">
<path d="M10.9277 16.5082C10.8521 16.4327 10.7922 16.3431 10.7513 16.2445C10.7104 16.1458 10.6894 16.0401 10.6894 15.9333C10.6894 15.8265 10.7104 15.7208 10.7513 15.6222C10.7922 15.5235 10.8521 15.4339 10.9277 15.3585L16.8539 9.43331L0.940036 9.43331C0.724548 9.43331 0.517885 9.34771 0.365511 9.19534C0.213138 9.04296 0.127536 8.8363 0.127536 8.62081C0.127536 8.40532 0.213138 8.19866 0.365511 8.04629C0.517885 7.89391 0.724548 7.80831 0.940036 7.80831L16.8539 7.80831L10.9277 1.88316C10.7752 1.7307 10.6896 1.52392 10.6896 1.30831C10.6896 1.0927 10.7752 0.885927 10.9277 0.733469C11.0801 0.581011 11.2869 0.495361 11.5025 0.495361C11.7181 0.495361 11.9249 0.581011 12.0774 0.733469L19.3899 8.04597C19.4654 8.12143 19.5254 8.21104 19.5662 8.30967C19.6071 8.40831 19.6282 8.51404 19.6282 8.62081C19.6282 8.72759 19.6071 8.83332 19.5662 8.93195C19.5254 9.03059 19.4654 9.1202 19.3899 9.19566L12.0774 16.5082C12.0019 16.5837 11.9123 16.6436 11.8137 16.6845C11.715 16.7254 11.6093 16.7465 11.5025 16.7465C11.3958 16.7465 11.29 16.7254 11.1914 16.6845C11.0928 16.6436 11.0031 16.5837 10.9277 16.5082Z" fill="white"/>
</svg>
