<svg width="19" height="18" viewBox="0 0 19 18" fill="none" xmlns="http://www.w3.org/2000/svg">
<g clip-path="url(#clip0_0_242)">
<path d="M6.96875 10.6875C7.43474 10.6875 7.8125 10.3097 7.8125 9.84375C7.8125 9.37776 7.43474 9 6.96875 9C6.50276 9 6.125 9.37776 6.125 9.84375C6.125 10.3097 6.50276 10.6875 6.96875 10.6875Z" fill="#1D6D38"/>
<path d="M12.0312 10.6875C12.4972 10.6875 12.875 10.3097 12.875 9.84375C12.875 9.37776 12.4972 9 12.0312 9C11.5653 9 11.1875 9.37776 11.1875 9.84375C11.1875 10.3097 11.5653 10.6875 12.0312 10.6875Z" fill="#1D6D38"/>
<path d="M11.2888 5.18138L11.6403 3.80114C11.6754 3.66227 11.7616 3.54174 11.8816 3.46355C12.0016 3.38536 12.1467 3.35527 12.2879 3.37927L14.822 3.79692C14.9314 3.81469 15.0333 3.86411 15.115 3.93907C15.1967 4.01404 15.2547 4.11128 15.2818 4.2188L17.3581 12.4011C17.3898 12.5297 17.3751 12.6654 17.3166 12.7842C17.2581 12.9031 17.1595 12.9975 17.0382 13.0508L12.3273 15.139C12.2558 15.1715 12.1784 15.1889 12.0999 15.1902C12.0214 15.1915 11.9435 15.1767 11.871 15.1466C11.7984 15.1165 11.7329 15.0719 11.6783 15.0154C11.6238 14.959 11.5814 14.8919 11.5538 14.8184L10.8359 12.8715" stroke="#1D6D38" stroke-width="1.4" stroke-linecap="round" stroke-linejoin="round"/>
<path d="M7.71171 5.18126L7.36015 3.80102C7.32504 3.66215 7.23889 3.54161 7.11887 3.46343C6.99886 3.38524 6.85379 3.35515 6.71257 3.37915L4.17851 3.7968C4.06905 3.81457 3.96719 3.86398 3.88548 3.93895C3.80377 4.01391 3.74578 4.11115 3.71867 4.21868L1.64234 12.3995C1.61062 12.5282 1.62532 12.6639 1.68384 12.7827C1.74237 12.9016 1.84097 12.9959 1.96226 13.0492L6.6732 15.1375C6.74468 15.17 6.82207 15.1874 6.90057 15.1887C6.97906 15.19 7.05699 15.1751 7.12951 15.1451C7.20203 15.115 7.2676 15.0704 7.32215 15.0139C7.3767 14.9575 7.41908 14.8904 7.44664 14.8169L8.16453 12.8713" stroke="#1D6D38" stroke-width="1.4" stroke-linecap="round" stroke-linejoin="round"/>
<path d="M6.125 5.50621C7.22471 5.20611 8.3601 5.05685 9.5 5.06253C10.6399 5.05685 11.7753 5.20611 12.875 5.50621" stroke="#1D6D38" stroke-width="1.4" stroke-linecap="round" stroke-linejoin="round"/>
<path d="M12.875 12.4938C11.7753 12.7939 10.6399 12.9431 9.5 12.9374C8.3601 12.9431 7.22471 12.7939 6.125 12.4938" stroke="#1D6D38" stroke-width="1.4" stroke-linecap="round" stroke-linejoin="round"/>
</g>
<defs>
<clipPath id="clip0_0_242">
<rect width="18" height="18" fill="white" transform="translate(0.5)"/>
</clipPath>
</defs>
</svg>
