<svg width="40" height="40" viewBox="0 0 40 40" fill="none" xmlns="http://www.w3.org/2000/svg">
<rect x="0.5" y="0.5" width="39" height="39" rx="19.5" fill="#696969" fill-opacity="0.14"/>
<g clip-path="url(#clip0_0_614)">
<path d="M16.0001 24.0499H15.3001C15.1068 24.0499 14.9501 24.2066 14.9501 24.3999C14.9501 24.5932 15.1068 24.7499 15.3001 24.7499H16.0001C16.1934 24.7499 16.3501 24.5932 16.3501 24.3999C16.3501 24.2066 16.1934 24.0499 16.0001 24.0499Z" fill="white"/>
<path d="M25.7999 24.0499H17.3999C17.2066 24.0499 17.0499 24.2066 17.0499 24.3999C17.0499 24.5932 17.2066 24.7499 17.3999 24.7499H25.7999C25.9932 24.7499 26.1499 24.5932 26.1499 24.3999C26.1499 24.2066 25.9932 24.0499 25.7999 24.0499Z" fill="white"/>
<path d="M16.0001 21.9501H15.3001C15.1068 21.9501 14.9501 22.1068 14.9501 22.3001C14.9501 22.4934 15.1068 22.6501 15.3001 22.6501H16.0001C16.1934 22.6501 16.3501 22.4934 16.3501 22.3001C16.3501 22.1068 16.1934 21.9501 16.0001 21.9501Z" fill="white"/>
<path d="M25.7999 21.9501H17.3999C17.2066 21.9501 17.0499 22.1068 17.0499 22.3001C17.0499 22.4934 17.2066 22.6501 17.3999 22.6501H25.7999C25.9932 22.6501 26.1499 22.4934 26.1499 22.3001C26.1499 22.1068 25.9932 21.9501 25.7999 21.9501Z" fill="white"/>
<path d="M16.0001 19.85H15.3001C15.1068 19.85 14.9501 20.0067 14.9501 20.2C14.9501 20.3933 15.1068 20.55 15.3001 20.55H16.0001C16.1934 20.55 16.3501 20.3933 16.3501 20.2C16.3501 20.0067 16.1934 19.85 16.0001 19.85Z" fill="white"/>
<path d="M25.7999 19.85H17.3999C17.2066 19.85 17.0499 20.0067 17.0499 20.2C17.0499 20.3933 17.2066 20.55 17.3999 20.55H25.7999C25.9932 20.55 26.1499 20.3933 26.1499 20.2C26.1499 20.0067 25.9932 19.85 25.7999 19.85Z" fill="white"/>
<path d="M16.0001 17.7499H15.3001C15.1068 17.7499 14.9501 17.9066 14.9501 18.0999C14.9501 18.2932 15.1068 18.4499 15.3001 18.4499H16.0001C16.1934 18.4499 16.3501 18.2932 16.3501 18.0999C16.3501 17.9066 16.1934 17.7499 16.0001 17.7499Z" fill="white"/>
<path d="M25.7999 17.7499H17.3999C17.2066 17.7499 17.0499 17.9066 17.0499 18.0999C17.0499 18.2932 17.2066 18.4499 17.3999 18.4499H25.7999C25.9932 18.4499 26.1499 18.2932 26.1499 18.0999C26.1499 17.9066 25.9932 17.7499 25.7999 17.7499Z" fill="white"/>
<path d="M16.0001 15.65H15.3001C15.1068 15.65 14.9501 15.8067 14.9501 16C14.9501 16.1933 15.1068 16.35 15.3001 16.35H16.0001C16.1934 16.35 16.3501 16.1933 16.3501 16C16.3501 15.8067 16.1934 15.65 16.0001 15.65Z" fill="white"/>
<path d="M25.7999 15.65H17.3999C17.2066 15.65 17.0499 15.8067 17.0499 16C17.0499 16.1933 17.2066 16.35 17.3999 16.35H25.7999C25.9932 16.35 26.1499 16.1933 26.1499 16C26.1499 15.8067 25.9932 15.65 25.7999 15.65Z" fill="white"/>
<path d="M28.2456 14.228C28.2438 14.1973 28.2378 14.167 28.2277 14.138C28.2239 14.1268 28.2211 14.116 28.2162 14.1051C28.1992 14.067 28.1754 14.0323 28.1462 14.0026L23.2462 9.10255C23.2164 9.07328 23.1817 9.04957 23.1436 9.03255C23.1328 9.02765 23.1219 9.02485 23.1111 9.021C23.0818 9.01094 23.0513 9.00481 23.0204 9.0028C23.0145 9.00385 23.0078 9 23.0001 9H13.2001C13.0068 9 12.8501 9.15671 12.8501 9.35V10.4H11.1001C10.9068 10.4 10.7501 10.5567 10.7501 10.75V29.65C10.7501 29.8433 10.9068 30 11.1001 30H25.8001C25.9934 30 26.1501 29.8433 26.1501 29.65V27.9H27.9001C28.0934 27.9 28.2501 27.7433 28.2501 27.55V14.25C28.2501 14.2423 28.2463 14.2357 28.2456 14.228ZM23.3501 10.1949L27.0552 13.9H23.3501V10.1949ZM25.4501 29.3H11.4501V11.1H12.8501V27.55C12.8501 27.7433 13.0068 27.9 13.2001 27.9H25.4501V29.3ZM27.5501 27.2H13.5501V9.7H22.6501V14.25C22.6501 14.4433 22.8068 14.6 23.0001 14.6H27.5501V27.2Z" fill="white"/>
<path d="M17.4001 12.1499H15.3001C15.1068 12.1499 14.9501 12.3066 14.9501 12.4999V14.5999C14.9501 14.7932 15.1068 14.9499 15.3001 14.9499H17.4001C17.5934 14.9499 17.7501 14.7932 17.7501 14.5999V12.4999C17.7501 12.3066 17.5934 12.1499 17.4001 12.1499ZM17.0501 14.2499H15.6501V12.8499H17.0501V14.2499Z" fill="white"/>
</g>
<rect x="0.5" y="0.5" width="39" height="39" rx="19.5" stroke="url(#paint0_linear_0_614)"/>
<defs>
<linearGradient id="paint0_linear_0_614" x1="4.55026" y1="8.66667" x2="39.9717" y2="14.2939" gradientUnits="userSpaceOnUse">
<stop stop-color="#5B0EEA"/>
<stop offset="1" stop-color="#EE4525"/>
</linearGradient>
<clipPath id="clip0_0_614">
<rect width="21" height="21" fill="white" transform="translate(9 9)"/>
</clipPath>
</defs>
</svg>
