<svg width="20" height="20" viewBox="0 0 20 20" fill="none" xmlns="http://www.w3.org/2000/svg">
<g clip-path="url(#clip0_0_546)">
<path d="M18.0781 3.46358C18.0781 3.46358 18.0781 3.4714 18.0781 3.4753L13.5312 18.4706C13.4624 18.7142 13.3207 18.9309 13.1252 19.0916C12.9297 19.2523 12.6897 19.3494 12.4374 19.3698C12.4015 19.373 12.3656 19.3745 12.3296 19.3745C12.0932 19.3753 11.8615 19.3083 11.6619 19.1817C11.4623 19.055 11.3031 18.8739 11.2031 18.6597L8.41322 12.7698C8.38567 12.7116 8.37682 12.6462 8.38787 12.5827C8.39892 12.5192 8.42933 12.4607 8.47493 12.4151L12.9484 7.94093C13.0606 7.82276 13.1223 7.66542 13.1202 7.50244C13.1181 7.33947 13.0525 7.18375 12.9372 7.0685C12.822 6.95325 12.6662 6.88758 12.5033 6.8855C12.3403 6.88341 12.1829 6.94507 12.0648 7.05733L7.58431 11.5308C7.53877 11.5764 7.48024 11.6068 7.41675 11.6178C7.35325 11.6289 7.28789 11.62 7.22962 11.5925L1.37025 8.81671C1.14012 8.71128 0.946464 8.53993 0.813787 8.32437C0.68111 8.1088 0.615385 7.85872 0.624934 7.60577C0.637659 7.3458 0.731777 7.0964 0.893982 6.89284C1.05619 6.68928 1.27827 6.54185 1.52884 6.4714L16.5242 1.92452H16.5359C16.7494 1.86454 16.975 1.86244 17.1896 1.91843C17.4042 1.97442 17.6 2.0865 17.757 2.24315C17.9139 2.39981 18.0264 2.5954 18.0828 2.80987C18.1393 3.02434 18.1376 3.24996 18.0781 3.46358Z" fill="white"/>
</g>
<defs>
<clipPath id="clip0_0_546">
<rect width="20" height="20" fill="white"/>
</clipPath>
</defs>
</svg>
