<svg width="40" height="40" viewBox="0 0 40 40" fill="none" xmlns="http://www.w3.org/2000/svg">
<rect x="0.5" y="0.5" width="39" height="39" rx="19.5" fill="#696969" fill-opacity="0.14"/>
<path d="M20.0084 13.38C20.0505 12.798 20.2427 12.2368 20.5663 11.7512C20.89 11.2656 21.334 10.8723 21.8551 10.6095C22.3761 10.3468 22.9564 10.2236 23.5393 10.2521C24.1221 10.2805 24.6876 10.4596 25.1806 10.7719C25.237 10.8088 25.2824 10.8601 25.312 10.9206C25.3417 10.9811 25.3545 11.0484 25.3491 11.1156C25.3437 11.1827 25.3204 11.2472 25.2815 11.3022C25.2426 11.3572 25.1896 11.4007 25.1281 11.4281C24.2711 11.8137 23.5437 12.4385 23.0331 13.2274C22.5226 14.0163 22.2507 14.9359 22.25 15.8756C22.25 15.9853 22.25 16.095 22.2612 16.2028C22.2664 16.271 22.2529 16.3392 22.2221 16.4002C22.1913 16.4612 22.1444 16.5126 22.0865 16.5489C22.0285 16.5852 21.9618 16.605 21.8935 16.6061C21.8252 16.6073 21.7578 16.5897 21.6987 16.5553C21.1463 16.2393 20.6944 15.7735 20.3953 15.2116C20.0962 14.6498 19.9621 14.0148 20.0084 13.38ZM30.5 23.0578C30.5013 23.4864 30.3826 23.9067 30.1573 24.2713C29.9319 24.6358 29.609 24.9299 29.225 25.1203L29.1838 25.1391L25.5434 26.6897C25.5075 26.7055 25.4701 26.7181 25.4319 26.7272L19.4319 28.2272C19.3724 28.2425 19.3114 28.2503 19.25 28.2506H9.5C9.10218 28.2506 8.72064 28.0926 8.43934 27.8113C8.15804 27.53 8 27.1485 8 26.7506V23.0006C8 22.6028 8.15804 22.2213 8.43934 21.94C8.72064 21.6587 9.10218 21.5006 9.5 21.5006H12.1897L14.3103 19.3791C14.5884 19.0998 14.919 18.8783 15.2832 18.7275C15.6473 18.5768 16.0377 18.4996 16.4319 18.5006H21.125C21.5212 18.5006 21.9122 18.5902 22.2688 18.7628C22.6254 18.9354 22.9383 19.1864 23.1841 19.4971C23.4298 19.8078 23.6021 20.1701 23.6879 20.5569C23.7738 20.9436 23.7709 21.3448 23.6797 21.7303L27.6022 20.8284C27.9437 20.738 28.3013 20.7272 28.6477 20.7968C28.994 20.8665 29.3197 21.0147 29.5996 21.2301C29.8796 21.4455 30.1064 21.7223 30.2625 22.0392C30.4186 22.3561 30.4999 22.7046 30.5 23.0578ZM29 23.0578C28.9999 22.9338 28.9712 22.8115 28.9162 22.7004C28.8611 22.5892 28.7812 22.4923 28.6827 22.417C28.5841 22.3418 28.4695 22.2902 28.3478 22.2664C28.2261 22.2426 28.1006 22.2471 27.9809 22.2797L27.9519 22.2872L21.6706 23.7319C21.6155 23.7442 21.5593 23.7505 21.5028 23.7506H18.5C18.3011 23.7506 18.1103 23.6716 17.9697 23.531C17.829 23.3903 17.75 23.1995 17.75 23.0006C17.75 22.8017 17.829 22.6109 17.9697 22.4703C18.1103 22.3296 18.3011 22.2506 18.5 22.2506H21.125C21.4234 22.2506 21.7095 22.1321 21.9205 21.9211C22.1315 21.7101 22.25 21.424 22.25 21.1256C22.25 20.8273 22.1315 20.5411 21.9205 20.3301C21.7095 20.1192 21.4234 20.0006 21.125 20.0006H16.4319C16.2348 20 16.0396 20.0385 15.8576 20.114C15.6756 20.1895 15.5103 20.3004 15.3716 20.4403L13.25 22.5609V26.7506H19.1562L25.0091 25.2872L28.5716 23.7703C28.7012 23.702 28.8097 23.5995 28.8852 23.4739C28.9608 23.3483 29.0005 23.2044 29 23.0578ZM23.75 15.8756C23.75 16.5431 23.9479 17.1957 24.3188 17.7507C24.6896 18.3057 25.2167 18.7383 25.8334 18.9937C26.4501 19.2492 27.1287 19.316 27.7834 19.1858C28.4381 19.0556 29.0395 18.7341 29.5115 18.2621C29.9835 17.7901 30.3049 17.1887 30.4352 16.5341C30.5654 15.8794 30.4985 15.2008 30.2431 14.5841C29.9876 13.9674 29.5551 13.4403 29 13.0694C28.445 12.6986 27.7925 12.5006 27.125 12.5006C26.2299 12.5006 25.3715 12.8562 24.7385 13.4891C24.1056 14.1221 23.75 14.9805 23.75 15.8756Z" fill="white"/>
<rect x="0.5" y="0.5" width="39" height="39" rx="19.5" stroke="url(#paint0_linear_0_657)"/>
<defs>
<linearGradient id="paint0_linear_0_657" x1="4.55026" y1="8.66667" x2="39.9717" y2="14.2939" gradientUnits="userSpaceOnUse">
<stop stop-color="#5B0EEA"/>
<stop offset="1" stop-color="#EE4525"/>
</linearGradient>
</defs>
</svg>
