<svg width="40" height="40" viewBox="0 0 40 40" fill="none" xmlns="http://www.w3.org/2000/svg">
<rect x="0.5" y="0.5" width="39" height="39" rx="19.5" fill="#696969" fill-opacity="0.14"/>
<path d="M30.9785 22.6752V25.2709C30.9785 26.1624 30.0832 26.9725 28.4574 27.5519C26.9289 28.0967 24.9025 28.3967 22.7515 28.3967C20.6004 28.3967 18.5737 28.0967 17.0449 27.5519C15.4187 26.9725 14.5232 26.1624 14.5232 25.2709V24.6059H15.1237V25.2709C15.1237 25.7243 15.5524 26.1865 16.3274 26.5914V25.8205H16.9279V26.8655C17.0303 26.9066 17.1363 26.9469 17.2465 26.9862C17.7113 27.1518 18.2254 27.2937 18.7771 27.4105V26.5183H19.3777V27.525C19.9635 27.6251 20.5838 27.6986 21.2269 27.7436V26.8222H21.8275V27.7769C22.1318 27.7896 22.4402 27.7961 22.7515 27.7961C23.0628 27.7961 23.3711 27.7895 23.6755 27.7769V26.8222H24.2761V27.7435C24.9192 27.6985 25.5395 27.625 26.1253 27.5249V26.5183H26.7258V27.4104C27.2773 27.2937 27.7913 27.1518 28.2558 26.9862C28.3658 26.947 28.4716 26.9068 28.5738 26.8657V25.8205H29.1744V26.5916C29.9494 26.1867 30.378 25.7245 30.378 25.271V23.8852C29.9508 24.2904 29.3032 24.6543 28.4574 24.9558C26.9285 25.5009 24.9021 25.801 22.7515 25.801C20.0031 25.801 17.4593 25.304 15.9467 24.4714L16.2363 23.9453C17.6643 24.7312 20.0998 25.2004 22.7515 25.2004C24.8351 25.2004 26.7899 24.9126 28.2557 24.3901C29.6044 23.9093 30.3779 23.2842 30.3779 22.6753C30.3779 22.0919 29.6584 21.4864 28.4039 21.014C27.0423 20.5012 25.1998 20.1961 23.2157 20.155L23.2282 19.5545C25.2786 19.597 27.1919 19.9157 28.6156 20.452C30.1614 21.0341 30.9785 21.8029 30.9785 22.6752ZM27.141 23.4471C25.9717 23.7263 24.4128 23.8801 22.7515 23.8801C20.7743 23.8801 18.9036 23.6539 17.7473 23.275L17.5603 23.8457C18.7918 24.2492 20.6839 24.4807 22.7515 24.4807C24.4584 24.4807 26.0669 24.3211 27.2805 24.0313C28.659 23.7021 29.3579 23.2459 29.3579 22.6753C29.3579 22.1041 28.659 21.6478 27.2804 21.3188C26.0674 21.0293 24.459 20.8699 22.7515 20.8699C22.3561 20.8699 21.9742 20.8778 21.6163 20.8933L21.6423 21.4933C21.9916 21.4782 22.3647 21.4705 22.7515 21.4705C24.4134 21.4705 25.9723 21.6241 27.141 21.903C28.4604 22.2178 28.7573 22.575 28.7573 22.6753C28.7573 22.7754 28.4604 23.1321 27.141 23.4471ZM19.1911 22.1973C17.3285 23.2726 15.4236 24.0259 13.8271 24.3183C13.3542 24.405 12.9213 24.4478 12.5334 24.4478C11.5284 24.4478 10.8243 24.1605 10.5027 23.6035C10.0699 22.8546 9.63705 22.1044 9.20538 21.3553C8.7598 20.5833 9.13023 19.4342 10.2484 18.1196C11.2995 16.8837 12.9042 15.6105 14.7669 14.5346C16.6297 13.459 18.535 12.7055 20.1318 12.4132C21.8297 12.1023 23.0099 12.3563 23.4552 13.1284C23.4553 13.1285 23.4553 13.1286 23.4554 13.1287C23.8881 13.8773 24.3209 14.6263 24.7538 15.3765C25.1996 16.1479 24.8292 17.297 23.7108 18.6119C22.6591 19.8483 21.054 21.1217 19.1911 22.1973ZM9.72561 21.0553L9.72573 21.0555C9.72578 21.0555 9.72578 21.0555 9.72582 21.0556C10.0301 21.5831 11.0124 21.7376 12.4208 21.4796C13.9514 21.1992 15.7885 20.471 17.5936 19.4293C19.398 18.387 20.9469 17.1602 21.9549 15.9749C22.8824 14.8842 23.2397 13.9564 22.9353 13.4291C22.9353 13.429 22.9352 13.429 22.9352 13.4289C22.7274 13.0684 22.2035 12.8818 21.4439 12.8818C21.0908 12.8818 20.6869 12.9221 20.2399 13.004C18.709 13.2843 16.872 14.0126 15.0672 15.0547C13.2625 16.0971 11.7136 17.3238 10.7058 18.5087C9.77824 19.5993 9.42096 20.5275 9.72561 21.0553ZM18.8908 21.6772C19.1606 21.5214 19.4244 21.3615 19.6818 21.1982L19.2051 20.3719L19.7253 20.0718L20.1853 20.8691C20.7196 20.5086 21.2198 20.1348 21.677 19.7553L21.1736 18.884L21.6936 18.5835L22.1398 19.3558C22.5593 18.9788 22.9336 18.5987 23.2533 18.2228C23.3291 18.1337 23.4007 18.0457 23.4688 17.959L22.9462 17.0542L23.4662 16.7538L23.8518 17.4212C24.3203 16.6833 24.4604 16.0691 24.2337 15.6768C24.0026 15.2762 23.7714 14.8765 23.5404 14.4764C23.373 15.0409 22.9942 15.6798 22.4125 16.3639C21.3611 17.6002 19.7564 18.8736 17.894 19.9494C16.0307 21.0246 14.1254 21.7779 12.5291 22.0703C12.0561 22.157 11.6233 22.1998 11.2354 22.1998C10.8985 22.1998 10.5964 22.1668 10.3302 22.1028C10.5611 22.503 10.7917 22.9032 11.0228 23.303C11.2496 23.6958 11.8518 23.8817 12.7253 23.845L12.3399 23.178L12.8599 22.8775L13.3827 23.7822C13.4919 23.7666 13.6039 23.7486 13.719 23.7275C14.2043 23.6386 14.7206 23.5045 15.2567 23.3298L14.8104 22.558L15.3303 22.2574L15.8341 23.1287C16.3914 22.9226 16.9653 22.6761 17.5447 22.3936L17.0838 21.5963L17.6038 21.2958L18.0815 22.1222C18.3512 21.9812 18.6213 21.8328 18.8908 21.6772ZM10.6085 20.5459C10.323 20.0507 10.7001 19.3058 11.7296 18.3316C12.6356 17.4742 13.9492 16.532 15.4283 15.6786L15.4282 15.6786C16.9066 14.8247 18.3792 14.1585 19.5748 13.8025C20.9331 13.398 21.7666 13.4437 22.0522 13.9381C22.3379 14.4325 21.9607 15.1772 20.9312 16.1515C20.0251 17.0089 18.7116 17.9513 17.2325 18.8053C15.7536 19.659 14.281 20.3251 13.086 20.6811C12.4751 20.863 11.9702 20.954 11.5738 20.954C11.0886 20.954 10.7657 20.8179 10.6085 20.5459ZM11.1287 20.2457C11.1787 20.3322 11.6144 20.4928 12.9145 20.1055C14.0659 19.7625 15.4927 19.116 16.9322 18.2852C18.3718 17.454 19.6454 16.5413 20.5183 15.7153C21.5036 14.7828 21.5823 14.3253 21.5322 14.2385C21.5065 14.1942 21.3802 14.1305 21.0893 14.1305C20.811 14.1305 20.3819 14.1887 19.7462 14.3781C18.5943 14.721 17.1675 15.3676 15.7286 16.1987L15.7285 16.1987C14.2889 17.0293 13.0153 17.9417 12.1424 18.7678C11.157 19.7003 11.0785 20.1586 11.1287 20.2457ZM11.6467 25.8144H11.0461V26.6545H10.2047V27.255H11.0461V28.0964H11.6467V27.255H12.488V26.6545H11.6467V25.8144ZM26.417 18.8821H27.0176V18.0408H27.8576V17.4402H27.0176V16.5989H26.417V17.4402H25.5757V18.0408H26.417V18.8821ZM11.4497 13.8865H12.0503V13.0452H12.8916V12.4446H12.0503V11.6033H11.4497V12.4446H10.6084V13.0452H11.4497V13.8865Z" fill="white"/>
<rect x="0.5" y="0.5" width="39" height="39" rx="19.5" stroke="url(#paint0_linear_0_607)"/>
<defs>
<linearGradient id="paint0_linear_0_607" x1="4.55026" y1="8.66667" x2="39.9717" y2="14.2939" gradientUnits="userSpaceOnUse">
<stop stop-color="#5B0EEA"/>
<stop offset="1" stop-color="#EE4525"/>
</linearGradient>
</defs>
</svg>
