<svg width="17" height="17" viewBox="0 0 17 17" fill="none" xmlns="http://www.w3.org/2000/svg">
<path d="M9.01634 2.03201L10.6497 5.92451C10.6892 6.01898 10.7538 6.10086 10.8365 6.16132C10.9191 6.22179 11.0167 6.25855 11.1187 6.26764L15.2995 6.62904C15.4104 6.63796 15.5162 6.67958 15.6035 6.74864C15.6907 6.8177 15.7555 6.91109 15.7897 7.017C15.8239 7.12291 15.8259 7.23658 15.7954 7.34362C15.765 7.45066 15.7035 7.54627 15.6187 7.61834L12.4469 10.3851C12.3698 10.4529 12.3125 10.5402 12.281 10.6379C12.2496 10.7356 12.2452 10.8399 12.2683 10.9399L13.2189 15.056C13.244 15.1635 13.237 15.276 13.1986 15.3795C13.1602 15.4831 13.0922 15.573 13.0031 15.6381C12.914 15.7033 12.8076 15.7408 12.6973 15.7459C12.5871 15.751 12.4777 15.7236 12.3829 15.667L8.78993 13.4873C8.70263 13.4342 8.60242 13.4062 8.50025 13.4062C8.39807 13.4062 8.29786 13.4342 8.21056 13.4873L4.61759 15.667C4.52279 15.7236 4.41343 15.751 4.30315 15.7459C4.19287 15.7408 4.08654 15.7033 3.9974 15.6381C3.90827 15.573 3.84028 15.4831 3.8019 15.3795C3.76352 15.276 3.75645 15.1635 3.78157 15.056L4.7322 10.9399C4.75531 10.8399 4.7509 10.7356 4.71946 10.6379C4.68801 10.5402 4.6307 10.4529 4.55361 10.3851L1.38181 7.61834C1.29701 7.54627 1.2355 7.45066 1.20505 7.34362C1.17461 7.23658 1.1766 7.12291 1.21077 7.017C1.24495 6.91109 1.30977 6.8177 1.39704 6.74864C1.48431 6.67958 1.5901 6.63796 1.70103 6.62904L5.88181 6.26764C5.98381 6.25855 6.08139 6.22179 6.16404 6.16132C6.24669 6.10086 6.31126 6.01898 6.35079 5.92451L7.98415 2.03201C8.02778 1.93137 8.09988 1.84569 8.19157 1.7855C8.28327 1.72531 8.39056 1.69324 8.50025 1.69324C8.60993 1.69324 8.71723 1.72531 8.80892 1.7855C8.90062 1.84569 8.97271 1.93137 9.01634 2.03201Z" stroke="#1D6D38" stroke-width="1.4" stroke-linecap="round" stroke-linejoin="round"/>
</svg>
