<svg width="14" height="14" viewBox="0 0 14 14" fill="none" xmlns="http://www.w3.org/2000/svg">
<g clip-path="url(#clip0_0_814)">
<path d="M9.07192 2.35956L9.84379 4.15874C9.86287 4.20273 9.89355 4.24071 9.93255 4.26862C9.97155 4.29653 10.0174 4.31331 10.0652 4.31717L12.0391 4.48526C12.0907 4.48858 12.1401 4.50721 12.1811 4.53879C12.2221 4.57036 12.2527 4.61344 12.269 4.66251C12.2854 4.71157 12.2868 4.76441 12.2729 4.81425C12.2591 4.86409 12.2307 4.90867 12.1914 4.94229L10.6918 6.22046C10.656 6.25106 10.6291 6.2909 10.6143 6.33565C10.5994 6.38041 10.5971 6.42838 10.6075 6.47436L11.0564 8.37663C11.0676 8.4271 11.0637 8.47974 11.0452 8.52801C11.0267 8.57628 10.9945 8.61806 10.9524 8.64818C10.9104 8.6783 10.8605 8.69542 10.8089 8.69743C10.7572 8.69944 10.7061 8.68624 10.6619 8.65948L8.96477 7.65046C8.92339 7.62602 8.87622 7.61313 8.82817 7.61313C8.78012 7.61313 8.73294 7.62602 8.69157 7.65046L6.99446 8.65948C6.95023 8.68624 6.89913 8.69944 6.84748 8.69743C6.79583 8.69542 6.7459 8.6783 6.70389 8.64818C6.66188 8.61806 6.62963 8.57628 6.61114 8.52801C6.59265 8.47974 6.58874 8.4271 6.59989 8.37663L7.05082 6.4769C7.06127 6.43092 7.05894 6.38295 7.04408 6.33819C7.02922 6.29344 7.0024 6.2536 6.96653 6.22299L5.46696 4.94229C5.42765 4.90867 5.39927 4.86409 5.38544 4.81425C5.37161 4.76441 5.37296 4.71157 5.38932 4.66251C5.40568 4.61344 5.43629 4.57036 5.47726 4.53879C5.51823 4.50721 5.56768 4.48858 5.6193 4.48526L7.59368 4.31819C7.64114 4.31379 7.68653 4.29665 7.72506 4.26859C7.76358 4.24052 7.79381 4.20257 7.81254 4.15874L8.58442 2.35956C8.60516 2.31218 8.63927 2.27187 8.68256 2.24357C8.72585 2.21527 8.77645 2.2002 8.82817 2.2002C8.87989 2.2002 8.93049 2.21527 8.97378 2.24357C9.01707 2.27187 9.05117 2.31218 9.07192 2.35956Z" stroke="#FBA0B9" stroke-width="0.91" stroke-linecap="round" stroke-linejoin="round"/>
<path d="M4.5625 7.0752L1.71875 9.91895" stroke="#FBA0B9" stroke-width="0.91" stroke-linecap="round" stroke-linejoin="round"/>
<path d="M5.375 9.91895L2.53125 12.7627" stroke="#FBA0B9" stroke-width="0.91" stroke-linecap="round" stroke-linejoin="round"/>
<path d="M9.03125 9.91895L6.1875 12.7627" stroke="#FBA0B9" stroke-width="0.91" stroke-linecap="round" stroke-linejoin="round"/>
</g>
<defs>
<clipPath id="clip0_0_814">
<rect width="13" height="13" fill="white" transform="translate(0.5 0.981445)"/>
</clipPath>
</defs>
</svg>
