<svg width="23" height="23" viewBox="0 0 23 23" fill="none" xmlns="http://www.w3.org/2000/svg">
<path d="M11.5187 0.500488C9.34638 0.500488 7.22282 1.14466 5.41659 2.35155C3.61035 3.55844 2.20256 5.27384 1.37124 7.28083C0.539915 9.28781 0.322404 11.4962 0.746207 13.6268C1.17001 15.7574 2.21609 17.7145 3.75217 19.2506C5.28825 20.7867 7.24534 21.8328 9.37594 22.2566C11.5065 22.6804 13.715 22.4629 15.722 21.6315C17.7289 20.8002 19.4443 19.3924 20.6512 17.5862C21.8581 15.78 22.5023 13.6564 22.5023 11.4841C22.4992 8.57198 21.341 5.78005 19.2819 3.7209C17.2227 1.66174 14.4308 0.503563 11.5187 0.500488ZM16.3409 9.54715L10.4267 15.4614C10.3482 15.5399 10.2551 15.6022 10.1525 15.6448C10.0499 15.6873 9.93998 15.7092 9.82895 15.7092C9.71792 15.7092 9.60798 15.6873 9.50541 15.6448C9.40284 15.6022 9.30966 15.5399 9.23119 15.4614L6.69652 12.9267C6.53798 12.7682 6.44892 12.5531 6.44892 12.3289C6.44892 12.1047 6.53798 11.8897 6.69652 11.7312C6.85506 11.5726 7.07008 11.4836 7.29428 11.4836C7.51848 11.4836 7.7335 11.5726 7.89204 11.7312L9.82895 13.6692L15.1454 8.35163C15.2239 8.27313 15.3171 8.21086 15.4197 8.16838C15.5222 8.12589 15.6322 8.10403 15.7432 8.10403C15.8542 8.10403 15.9641 8.12589 16.0667 8.16838C16.1692 8.21086 16.2624 8.27313 16.3409 8.35163C16.4194 8.43013 16.4817 8.52332 16.5242 8.62588C16.5667 8.72845 16.5885 8.83837 16.5885 8.94939C16.5885 9.0604 16.5667 9.17033 16.5242 9.27289C16.4817 9.37546 16.4194 9.46865 16.3409 9.54715Z" fill="url(#paint0_linear_0_183)"/>
<defs>
<linearGradient id="paint0_linear_0_183" x1="7.71672" y1="-15.5524" x2="48.9221" y2="26.4761" gradientUnits="userSpaceOnUse">
<stop stop-color="#A6D4EB"/>
<stop offset="1" stop-color="#EE7BD9"/>
</linearGradient>
</defs>
</svg>
