<svg width="31" height="31" viewBox="0 0 31 31" fill="none" xmlns="http://www.w3.org/2000/svg">
<path d="M15.5747 0.513672C12.5646 0.513672 9.62214 1.40626 7.11935 3.07857C4.61656 4.75088 2.66588 7.1278 1.51397 9.90875C0.362063 12.6897 0.0606717 15.7498 0.647909 18.702C1.23515 21.6543 2.68464 24.3661 4.81308 26.4945C6.94153 28.6229 9.65333 30.0724 12.6056 30.6597C15.5578 31.2469 18.6179 30.9455 21.3988 29.7936C24.1798 28.6417 26.5567 26.691 28.229 24.1882C29.9013 21.6854 30.7939 18.743 30.7939 15.7329C30.7896 11.6978 29.1848 7.82922 26.3316 4.97598C23.4784 2.12275 19.6098 0.517933 15.5747 0.513672ZM22.2565 13.049L14.0616 21.244C13.9528 21.3528 13.8237 21.4392 13.6816 21.4981C13.5395 21.557 13.3871 21.5874 13.2333 21.5874C13.0794 21.5874 12.9271 21.557 12.785 21.4981C12.6428 21.4392 12.5137 21.3528 12.405 21.244L8.89287 17.7319C8.6732 17.5122 8.54979 17.2143 8.54979 16.9036C8.54979 16.5929 8.6732 16.295 8.89287 16.0753C9.11254 15.8556 9.41048 15.7322 9.72115 15.7322C10.0318 15.7322 10.3298 15.8556 10.5494 16.0753L13.2333 18.7606L20.6 11.3925C20.7087 11.2837 20.8379 11.1974 20.98 11.1386C21.1221 11.0797 21.2744 11.0494 21.4282 11.0494C21.5821 11.0494 21.7344 11.0797 21.8765 11.1386C22.0186 11.1974 22.1477 11.2837 22.2565 11.3925C22.3653 11.5013 22.4516 11.6304 22.5104 11.7725C22.5693 11.9146 22.5996 12.0669 22.5996 12.2208C22.5996 12.3746 22.5693 12.5269 22.5104 12.669C22.4516 12.8111 22.3653 12.9403 22.2565 13.049Z" fill="white"/>
</svg>
