<svg width="32" height="32" viewBox="0 0 32 32" fill="none" xmlns="http://www.w3.org/2000/svg">
<path d="M15.959 0.681641C12.9123 0.681641 9.93405 1.58509 7.40082 3.27773C4.8676 4.97038 2.89319 7.3762 1.72728 10.191C0.561362 13.0057 0.256305 16.103 0.850684 19.0912C1.44506 22.0793 2.91218 24.8241 5.06651 26.9784C7.22084 29.1328 9.96562 30.5999 12.9538 31.1943C15.9419 31.7886 19.0392 31.4836 21.854 30.3177C24.6687 29.1517 27.0746 27.1773 28.7672 24.6441C30.4599 22.1109 31.3633 19.1326 31.3633 16.0859C31.359 12.0018 29.7347 8.08615 26.8467 5.19822C23.9588 2.31029 20.0431 0.685954 15.959 0.681641ZM22.7221 13.3695L14.4275 21.6641C14.3174 21.7743 14.1867 21.8617 14.0429 21.9213C13.899 21.9809 13.7448 22.0116 13.5891 22.0116C13.4334 22.0116 13.2792 21.9809 13.1353 21.9213C12.9915 21.8617 12.8608 21.7743 12.7508 21.6641L9.19591 18.1092C8.97357 17.8869 8.84866 17.5853 8.84866 17.2709C8.84866 16.9564 8.97357 16.6549 9.19591 16.4325C9.41826 16.2102 9.71982 16.0853 10.0343 16.0853C10.3487 16.0853 10.6503 16.2102 10.8726 16.4325L13.5891 19.1505L21.0454 11.6928C21.1555 11.5827 21.2862 11.4953 21.43 11.4357C21.5739 11.3762 21.728 11.3455 21.8837 11.3455C22.0394 11.3455 22.1936 11.3762 22.3374 11.4357C22.4813 11.4953 22.612 11.5827 22.7221 11.6928C22.8322 11.8028 22.9195 11.9335 22.9791 12.0774C23.0387 12.2212 23.0693 12.3754 23.0693 12.5311C23.0693 12.6868 23.0387 12.841 22.9791 12.9848C22.9195 13.1287 22.8322 13.2594 22.7221 13.3695Z" fill="url(#paint0_linear_0_382)"/>
<defs>
<linearGradient id="paint0_linear_0_382" x1="6.17084" y1="46.5736" x2="47.9157" y2="14.0674" gradientUnits="userSpaceOnUse">
<stop offset="0.395833" stop-color="#DC8DF8"/>
<stop offset="1" stop-color="#A9C4F3"/>
</linearGradient>
</defs>
</svg>
