<svg width="40" height="40" viewBox="0 0 40 40" fill="none" xmlns="http://www.w3.org/2000/svg">
<rect x="0.5" y="0.5" width="39" height="39" rx="19.5" fill="#696969" fill-opacity="0.14"/>
<path d="M20 11.75C18.22 11.75 16.4799 12.2778 14.9999 13.2668C13.5198 14.2557 12.3663 15.6613 11.6851 17.3058C11.0039 18.9504 10.8257 20.76 11.1729 22.5058C11.5202 24.2516 12.3774 25.8553 13.636 27.114C14.8947 28.3726 16.4984 29.2298 18.2442 29.5771C19.99 29.9243 21.7996 29.7461 23.4442 29.0649C25.0887 28.3837 26.4943 27.2302 27.4832 25.7501C28.4722 24.2701 29 22.53 29 20.75C28.9973 18.3639 28.0482 16.0763 26.361 14.3891C24.6737 12.7018 22.3861 11.7527 20 11.75ZM24.2806 17.5306L20.5306 21.2806C20.4609 21.3503 20.3782 21.4056 20.2872 21.4433C20.1961 21.481 20.0986 21.5004 20 21.5004C19.9015 21.5004 19.8039 21.481 19.7128 21.4433C19.6218 21.4056 19.5391 21.3503 19.4694 21.2806C19.3997 21.2109 19.3444 21.1282 19.3067 21.0372C19.269 20.9461 19.2496 20.8485 19.2496 20.75C19.2496 20.6515 19.269 20.5539 19.3067 20.4628C19.3444 20.3718 19.3997 20.2891 19.4694 20.2194L23.2194 16.4694C23.2891 16.3997 23.3718 16.3444 23.4628 16.3067C23.5539 16.269 23.6515 16.2496 23.75 16.2496C23.8486 16.2496 23.9461 16.269 24.0372 16.3067C24.1282 16.3444 24.2109 16.3997 24.2806 16.4694C24.3503 16.5391 24.4056 16.6218 24.4433 16.7128C24.481 16.8039 24.5004 16.9015 24.5004 17C24.5004 17.0985 24.481 17.1961 24.4433 17.2872C24.4056 17.3782 24.3503 17.4609 24.2806 17.5306ZM17 9.5C17 9.30109 17.079 9.11032 17.2197 8.96967C17.3603 8.82902 17.5511 8.75 17.75 8.75H22.25C22.4489 8.75 22.6397 8.82902 22.7803 8.96967C22.921 9.11032 23 9.30109 23 9.5C23 9.69891 22.921 9.88968 22.7803 10.0303C22.6397 10.171 22.4489 10.25 22.25 10.25H17.75C17.5511 10.25 17.3603 10.171 17.2197 10.0303C17.079 9.88968 17 9.69891 17 9.5Z" fill="white"/>
<rect x="0.5" y="0.5" width="39" height="39" rx="19.5" stroke="url(#paint0_linear_0_664)"/>
<defs>
<linearGradient id="paint0_linear_0_664" x1="4.55026" y1="8.66667" x2="39.9717" y2="14.2939" gradientUnits="userSpaceOnUse">
<stop stop-color="#5B0EEA"/>
<stop offset="1" stop-color="#EE4525"/>
</linearGradient>
</defs>
</svg>
